# xmcd
#
# Track frame offsets: 
#        150
#        26517
#        51005
#        75457
#        102571
#        134828
#        159805
#        186702
#        214441
#
# Disc length: 3167 seconds
#
# Revision: 3
# Processed by: cddbd v1.5.2PL0 Copyright (c) Steve Scherf et al.
# Submitted via: ExactAudioCopy v0.95b4
#
DISCID=800c5d09
DTITLE=Various Artist - Funkymix 80
DYEAR=2004
DGENRE=Hip-Hop
TTITLE0=L.L. Cool J - Headsprung (Funkymix)
TTITLE1=Shyne Feat. Ashanti - Jimmy Choo (Funkymix)
TTITLE2=Lil' Scrappy - No Problem (Funkymix)
TTITLE3=Brandy - Who Is She 2 U (Funkymix)
TTITLE4=Nelly Featuring Jahiem - My Place (Funkymix)
TTITLE5=Nelly - Flap Your Wings (Funkymix)
TTITLE6=Mase Featuring P. Diddy - Breathe, Stretch, Shake (Funkymix)
TTITLE7=Akon Featuring Styles P - Locked Up (Funkymix)
TTITLE8=Keyshia Cole Featuring Shyne - I Changed My Mind (Funkymix)
EXTD=
EXTT0=
EXTT1=
EXTT2=
EXTT3=
EXTT4=
EXTT5=
EXTT6=
EXTT7=
EXTT8=
PLAYORDER=
